<svg version="1.1" xmlns="http://www.w3.org/2000/svg" xmlns:xlink="http://www.w3.org/1999/xlink" width="16.00029" height="15.00114" viewBox="0,0,16.00029,15.00114"><g transform="translate(-312.00135,-172.49886)"><g data-paper-data="{&quot;isPaintingLayer&quot;:true}" fill="#ffb900" fill-rule="nonzero" stroke="none" stroke-width="1" stroke-linecap="butt" stroke-linejoin="miter" stroke-miterlimit="10" stroke-dasharray="" stroke-dashoffset="0" style="mix-blend-mode: normal"><path d="M314.866,186.852l0.83,-4.73l-3.523,-3.356c-0.329,-0.314 -0.158,-0.888 0.283,-0.95l4.898,-0.696l2.184,-4.328c0.08492,-0.17903 0.26535,-0.29314 0.4635,-0.29314c0.19815,0 0.37858,0.11412 0.4635,0.29314l2.184,4.327l4.898,0.696c0.442,0.062 0.612,0.636 0.282,0.95l-3.522,3.356l0.83,4.73c0.078,0.443 -0.36,0.79 -0.746,0.592l-4.389,-2.256l-4.39,2.256c-0.386,0.198 -0.824,-0.149 -0.746,-0.593zM319.77,184.083c0.14462,-0.07456 0.31638,-0.07456 0.461,0l3.686,1.894l-0.694,-3.957c-0.03337,-0.18529 0.02776,-0.37503 0.163,-0.506l2.906,-2.77l-4.052,-0.575c-0.17031,-0.02572 -0.31718,-0.13334 -0.393,-0.288l-1.847,-3.658l-1.845,3.658c-0.07582,0.15466 -0.22269,0.26228 -0.393,0.288l-4.052,0.576l2.906,2.77c0.13492,0.13076 0.19601,0.32004 0.163,0.505l-0.694,3.957l3.686,-1.894z"/></g></g></svg>