<svg version="1.1" xmlns="http://www.w3.org/2000/svg" xmlns:xlink="http://www.w3.org/1999/xlink" width="14.5" height="15.73591" viewBox="0,0,14.5,15.73591"><g transform="translate(-312.75,-171.51409)"><g data-paper-data="{&quot;isPaintingLayer&quot;:true}" fill="#0068ff" fill-rule="nonzero" stroke="#ffffff" stroke-width="0.5" stroke-linecap="butt" stroke-linejoin="miter" stroke-miterlimit="10" stroke-dasharray="" stroke-dashoffset="0" style="mix-blend-mode: normal"><path d="M319.184,183.246c-0.94485,1.12892 -2.49512,1.54593 -3.87882,1.04338c-1.3837,-0.50255 -2.30503,-1.81724 -2.30518,-3.28938c0,-1.602 1.14,-2.633 2.66,-4.008c1.326,-1.2 2.942,-2.662 4.34,-4.992c1.398,2.33 3.014,3.792 4.34,4.992c1.52,1.375 2.66,2.406 2.66,4.008c-0.00015,1.47214 -0.92148,2.78683 -2.30518,3.28938c-1.3837,0.50255 -2.93397,0.08554 -3.87882,-1.04338c0.44578,1.0112 0.97494,1.98356 1.582,2.907c0.231,0.35 -0.02,0.847 -0.438,0.847h-3.92c-0.419,0 -0.67,-0.497 -0.438,-0.847c0.60706,-0.92344 1.13622,-1.89579 1.582,-2.907"/></g></g></svg>